# xmcd
#
# Track frame offsets:
#	150
#	18135
#	39169
#	59280
#	79938
#	97890
#	115981
#	136806
#	155439
#	175714
#
# Disc length: 2485 seconds
#
# Revision: 0
# Processed by: cddbd v1.5.2PL0 Copyright (c) Steve Scherf et al.
# Submitted via: MuRip/1.0beta +https://www.muman.ch, 2018.11.03 17:59:28
#
DISCID=6c09b30a
DTITLE=Zazen - Ecstasy
DYEAR=1992
DGENRE=New Age
TTITLE0=Sunday Pastorial
TTITLE1=Inner City Blues
TTITLE2=Street Celebration
TTITLE3=Fall Reflections
TTITLE4=The Wilshire Hustle
TTITLE5=Ecstasy
TTITLE6=Summer Heat
TTITLE7=Tiffany's Song
TTITLE8=Caribbean Rhapsody
TTITLE9=Satin Sheets
EXTD=Barcode: 8 01495 1687 2 1
EXTT0=
EXTT1=
EXTT2=
EXTT3=
EXTT4=
EXTT5=
EXTT6=
EXTT7=
EXTT8=
EXTT9=
PLAYORDER=
